<?xml version="1.0" encoding="utf-8"?>
<!-- Generator: Adobe Illustrator 27.1.1, SVG Export Plug-In . SVG Version: 6.00 Build 0)  -->
<svg version="1.1" id="Layer_1" xmlns="http://www.w3.org/2000/svg" xmlns:xlink="http://www.w3.org/1999/xlink" x="0px" y="0px"
	 viewBox="0 0 260 36" style="enable-background:new 0 0 260 36;" xml:space="preserve">
<style type="text/css">
	.st0{fill:#002F6E;}
	.st1{clip-path:url(#SVGID_00000141444176955756889370000004707876451092942474_);}
	.st2{fill:#E60019;}
	.st3{fill:#E6001B;}
	.st4{fill:#FFFFFF;}
</style>
<g id="ACEEquityNXT_logo" transform="translate(-196.9 -378.199)">
	<g id="Group_5" transform="translate(211.9 385.199)">
		<path id="Path_2133" class="st0" d="M-5.9,4l2,5.2h-4L-5.9,4z M-7.8,0.1L-14,14.6h3.9l1-2.6h6.3l0.9,2.6h4.1L-3.9,0.1H-7.8z"/>
		<g id="Group_4" transform="translate(0 0)">
			<g>
				<defs>
					<rect id="SVGID_1_" x="-14" width="166.8" height="22.5"/>
				</defs>
				<clipPath id="SVGID_00000158017658795922567440000015320137026799471008_">
					<use xlink:href="#SVGID_1_"  style="overflow:visible;"/>
				</clipPath>
				<g id="Group_3" style="clip-path:url(#SVGID_00000158017658795922567440000015320137026799471008_);">
					<path id="Path_2134" class="st0" d="M10.1,3.2c-2.3,0.1-4,2-4,4.3c0.1,2.1,1.8,3.9,4,4c1.4-0.1,2.7-0.7,3.6-1.7l2.2,2.4
						c-1.6,1.7-3.8,2.6-6,2.7c-4.1,0.1-7.5-3-7.6-7.1c0-0.1,0-0.3,0-0.4C2.3,3.1,5.6,0,10.1,0c2.2,0,4.3,0.9,5.9,2.5l-2.2,2.6
						C12.9,4,11.5,3.3,10.1,3.2L10.1,3.2z"/>
					<path id="Path_2135" class="st0" d="M29,0.1v3h-7.7v2.7h6.9v3l-6.9,0v2.7h7.9v3H17.5V0.1H29z"/>
					<path id="Path_2136" class="st0" d="M146.5,14.6H143l-1.7-2.5l0-0.1v0l0.1-0.1l1.6-2.3l1.4,2l0.1,0.1L146.5,14.6z"/>
					<path id="Path_2137" class="st0" d="M146.5,3.8l-2,2.8l-0.1,0.1l-1.4,2l-1.6-2.3l-0.1-0.1l0-0.1l1.7-2.5H146.5z"/>
					<path id="Path_2138" class="st0" d="M152.8,14c-0.9,0.5-2,0.8-3.1,0.7c-1.9,0.2-3.6-1.2-3.8-3c0-0.2,0-0.4,0-0.6V6.3h-3V3.8h3
						V0.2h3.7v3.7h2.9v2.5h-2.9v4.3c0,0.8,0.4,1.2,1,1.2c0.5,0,1-0.2,1.4-0.4L152.8,14z"/>
					<path id="Path_2139" class="st0" d="M137.4,7.8L137.4,7.8L137,7.1L136.9,7l-2-2.8l-0.3-0.4v5.1l-6.5-8.7h-3.3v14.4h3.5V5.9
						l6.5,8.5l0.1-0.2l2-2.8l0.1-0.1l0.5-0.7l1-1.4L137.4,7.8z M134.6,3.3h4.2V0.2h-4.2V3.3z"/>
					<path id="Path_2140" class="st2" d="M140.5,9.2l-1.7,2.4l-0.1,0.1l-2,2.8h-1.4l2-2.8l0.1-0.1l1.7-2.4l-1.7-2.4l-0.1-0.1l-2-2.8
						h1.4l2,2.8l0.1,0.1L140.5,9.2z"/>
					<path id="Path_2141" class="st2" d="M142.6,9.2L142.6,9.2l-1.7,2.4l-0.1,0.1l-2,2.8h-1.4l2-2.8l0.1-0.1l1.7-2.4l-1.7-2.4
						l-0.1-0.1l-2-2.8h1.4l2,2.8l0.1,0.1L142.6,9.2z"/>
					<path id="Path_2142" class="st0" d="M39.5,0.1v14.3H51v-3h-7.8V8.8l6.8,0v-3h-6.8V3.1h7.6v-3H39.5z M67.3,14
						c-0.7,0.6-1.6,0.9-2.5,1.1c-0.7,0-1.3-0.4-1.7-0.9c2.9-1,4.8-3.8,4.7-6.8c0-4.2-3.3-7.3-7.8-7.3s-7.8,3.1-7.8,7.3
						c0,4.1,3.3,7.3,7.4,7.3c0,0,0.1,0,0.1,0c0.8,1.9,2.6,3.2,4.6,3.2c1.5,0,3-0.6,4.2-1.6L67.3,14z M56.2,7.3
						c-0.1-2.2,1.7-4,3.9-4.1h0c2.3,0.1,4,2.1,3.9,4.3c-0.1,2.1-1.8,3.7-3.9,3.9C57.9,11.4,56.2,9.6,56.2,7.3z M73.3,8.5V0.1h-3.7
						v8.3c0,3.8,2.6,6.2,6.7,6.2c4,0,6.6-2.4,6.6-6.2V0.1h-3.7v8.3c0.1,1.5-0.9,2.8-2.4,3c-0.1,0-0.2,0-0.4,0
						c-1.6,0.1-2.9-1.1-3-2.7C73.3,8.7,73.3,8.6,73.3,8.5L73.3,8.5z M85.4,0.1v14.3h3.7V0.1L85.4,0.1z M90.6,0.1v3.1h4.3v11.2h3.7
						V3.2h4.3V0.1L90.6,0.1z M117.1,0.1h-3.7l-3.3,6.2l-3.4-6.2H103l5.3,9.9v4.5h3.7V9.9L117.1,0.1z"/>
					<path id="Path_2143" class="st3" d="M139.1,22.1c0.9,0.1,1.7-0.5,1.8-1.4h-0.6c-0.2,0.5-0.7,0.9-1.3,0.9
						c-0.9,0-1.4-0.7-1.4-1.8s0.6-1.8,1.4-1.8c0.6,0,1.1,0.4,1.3,1h0.6c-0.1-0.9-0.9-1.5-1.8-1.5c-1.1,0-2,0.9-2,2
						c0,0.1,0,0.2,0,0.3c-0.2,1.1,0.6,2.1,1.7,2.3C138.9,22.1,139,22.1,139.1,22.1 M141.5,22.1h0.5v-4.4h-0.5V22.1z M144.1,22.1
						c0.8,0,1.5-0.6,1.5-1.5c0-0.1,0-0.1,0-0.2c0.1-0.8-0.5-1.6-1.3-1.6c-0.8-0.1-1.6,0.5-1.6,1.3c0,0.1,0,0.2,0,0.3
						c-0.1,0.8,0.5,1.5,1.3,1.6C143.9,22.1,144,22.1,144.1,22.1L144.1,22.1z M144.1,21.6c-0.6,0-0.9-0.4-0.9-1.2
						c0-0.8,0.4-1.2,0.9-1.2s0.9,0.4,0.9,1.2S144.6,21.6,144.1,21.6L144.1,21.6z M148.7,18.9h-0.5v1.9c0.1,0.4-0.3,0.8-0.7,0.9
						c0,0-0.1,0-0.1,0c-0.5,0-0.7-0.3-0.7-0.8v-2h-0.5v2.1c0,0.6,0.5,1.1,1.1,1.2c0.4,0,0.8-0.2,1-0.6h0v0.5h0.5L148.7,18.9z
						 M150.6,22.1c0.4,0,0.8-0.2,1-0.6h0v0.5h0.5v-4.4h-0.5v1.8h0c-0.2-0.4-0.6-0.6-1-0.6c-0.8,0-1.4,0.6-1.4,1.6
						S149.8,22.1,150.6,22.1 M150.7,19.3c0.5,0,0.9,0.5,0.9,1.2c0,0.7-0.4,1.2-0.9,1.2c-0.5,0-0.9-0.5-0.9-1.2
						S150.1,19.3,150.7,19.3L150.7,19.3z"/>
					<path id="Path_2144" class="st3" d="M112.3,18.6L112.3,18.6l1.1,3.5h0.5l1.2-4.4h-0.6l-0.9,3.6h0l-1-3.6H112l-1,3.6h0l-0.9-3.6
						h-0.6l1.2,4.4h0.5L112.3,18.6z M116.5,19.3c0.5,0,0.9,0.4,0.9,0.9c0,0,0,0,0,0.1h-1.7C115.6,19.7,116,19.3,116.5,19.3
						 M117.3,21.2c-0.1,0.3-0.4,0.5-0.8,0.5c-0.5,0-0.9-0.4-0.9-0.9c0,0,0-0.1,0-0.1v0h2.3v-0.2c0.1-0.8-0.4-1.5-1.2-1.6
						c-0.1,0-0.1,0-0.2,0c-0.8,0-1.5,0.7-1.5,1.5c0,0.1,0,0.1,0,0.2c-0.1,0.8,0.5,1.5,1.2,1.6c0.1,0,0.2,0,0.2,0
						c0.6,0,1.2-0.4,1.3-1L117.3,21.2z M120,22.1c0.8,0,1.4-0.6,1.4-1.6c0-1-0.5-1.6-1.3-1.6c-0.4,0-0.8,0.2-1,0.6h0v-1.8h-0.5v4.4
						h0.5v-0.5h0C119.2,21.9,119.6,22.1,120,22.1 M119.9,19.3c0.6,0,0.9,0.5,0.9,1.2c0,0.7-0.3,1.2-0.9,1.2c-0.5,0-0.9-0.5-0.9-1.2
						C119,19.8,119.4,19.3,119.9,19.3"/>
					<path id="Path_2145" class="st0" d="M108.2,20.6c0.2-0.5,0.2-0.9,0-1.4l0,0c-0.4-1.1-1.6-1.7-2.7-1.3c-0.6,0.2-1.1,0.7-1.3,1.3
						l0,0c-0.2,0.5-0.2,0.9,0,1.4l0,0c0.4,1.1,1.6,1.7,2.7,1.3C107.5,21.6,108,21.2,108.2,20.6L108.2,20.6 M106.2,21.7
						c-0.1,0-0.2-0.1-0.3-0.5c-0.1-0.2-0.1-0.4-0.1-0.5h0.9c0,0.2-0.1,0.4-0.1,0.5C106.4,21.5,106.3,21.7,106.2,21.7 M105.7,20.4
						c0-0.2,0-0.3,0-0.5c0-0.2,0-0.3,0-0.5h1c0,0.2,0,0.3,0,0.5s0,0.3,0,0.5H105.7z M104.4,19.9c0-0.2,0-0.3,0.1-0.5h0.9
						c0,0.2,0,0.3,0,0.5s0,0.3,0,0.5h-0.9C104.4,20.2,104.4,20,104.4,19.9 M106.2,18c0.1,0,0.2,0.1,0.3,0.5c0.1,0.2,0.1,0.4,0.1,0.5
						h-0.9c0-0.2,0.1-0.4,0.1-0.5C106,18.2,106.1,18,106.2,18 M107,19.3h0.9c0.1,0.3,0.1,0.7,0,1H107c0-0.2,0-0.3,0-0.5
						S107,19.5,107,19.3 M107.8,19H107c0-0.3-0.1-0.6-0.3-0.9C107.2,18.2,107.6,18.6,107.8,19 M105.7,18.1c-0.1,0.3-0.2,0.6-0.3,0.9
						h-0.9C104.8,18.6,105.3,18.2,105.7,18.1 M104.6,20.7h0.9c0,0.3,0.1,0.6,0.3,0.9C105.3,21.5,104.8,21.1,104.6,20.7 M106.7,21.6
						c0.1-0.3,0.2-0.6,0.3-0.9h0.9C107.6,21.1,107.2,21.5,106.7,21.6"/>
					<path id="Path_2146" class="st4" d="M107.5,19.2h-2.6c-0.4,0-0.7,0.3-0.7,0.7s0.3,0.7,0.7,0.7l0,0h2.6c0.4,0,0.7-0.3,0.7-0.7
						S107.9,19.2,107.5,19.2"/>
					<path id="Path_2147" class="st0" d="M104.9,19.1h2.6c0.1,0,0.2,0,0.3,0.1c0.4,0.2,0.6,0.6,0.4,1c-0.1,0.2-0.2,0.3-0.4,0.4
						c-0.1,0-0.2,0.1-0.3,0.1h-2.6c-0.1,0-0.2,0-0.3-0.1c-0.4-0.2-0.6-0.6-0.4-1c0.1-0.2,0.2-0.3,0.4-0.4
						C104.7,19.1,104.8,19.1,104.9,19.1 M107.5,20.4c0.2,0,0.3-0.1,0.4-0.2c0.2-0.2,0.2-0.6,0-0.8c-0.1-0.1-0.3-0.2-0.4-0.2h-2.6
						c-0.2,0-0.3,0.1-0.4,0.2c-0.2,0.2-0.2,0.6,0,0.8c0.1,0.1,0.3,0.2,0.4,0.2H107.5z"/>
					<path id="Path_2148" class="st0" d="M104.9,19.6l0.2,0.5h0.1l0.1-0.3l0.1,0.3h0.1l0.2-0.5h-0.1l-0.1,0.4l-0.1-0.4h-0.1
						l-0.1,0.4l-0.1-0.4L104.9,19.6z M105.8,19.6l0.2,0.5h0.1l0.1-0.3l0.1,0.3h0.1l0.2-0.5h-0.1l-0.1,0.4l-0.1-0.4h-0.1l-0.1,0.4
						l-0.1-0.4L105.8,19.6z M106.7,19.6l0.2,0.5h0.1l0.1-0.3l0.1,0.3h0.1l0.2-0.5h-0.1l-0.1,0.4l-0.1-0.4h-0.1l-0.1,0.4l-0.1-0.4
						H106.7z"/>
					<path id="Path_2149" class="st0" d="M134.6,22.2c-0.1,0-0.2-0.1-0.2-0.2s0.1-0.2,0.2-0.2l0,0c0.4,0,0.7-0.3,0.7-0.7
						c0-0.4-0.3-0.6-0.7-0.7c-0.1,0-0.2-0.1-0.2-0.2c0,0,0,0,0,0v0c0,0,0-0.1,0-0.1c0-0.9-0.8-1.7-1.7-1.6c-0.7,0-1.3,0.4-1.5,1
						c0,0.1-0.1,0.2-0.2,0.1c-0.6-0.1-1.2,0.3-1.2,0.9c-0.1,0.6,0.3,1.2,0.9,1.2c0,0,0,0,0.1,0c0,0,0.1,0,0.1,0
						c0.1,0,0.2,0.1,0.2,0.2s-0.1,0.2-0.2,0.2c-0.9,0-1.6-0.7-1.6-1.5c0-0.9,0.7-1.6,1.5-1.6l0,0h0c0.5-1.1,1.8-1.5,2.8-1
						c0.7,0.3,1.2,1,1.2,1.8c0.6,0.1,1,0.7,0.9,1.4C135.6,21.9,135.2,22.2,134.6,22.2"/>
					<path id="Path_2150" class="st0" d="M130.9,20c0.2,0.1,0,0.2,0,0.2c-0.3-0.1-0.5,0.1-0.6,0.4s0.1,0.5,0.4,0.6c0,0,0.1,0,0.1,0
						h0.1c0.1,0,0.1,0,0.1,0.1c0,0.1,0,0.1-0.1,0.1c-0.4,0-0.7-0.3-0.7-0.7c0-0.4,0.3-0.7,0.7-0.7"/>
					<path id="Path_2151" class="st0" d="M134.6,22.2h-3.8c-0.2,0-0.4-0.1-0.4-0.2s0.2-0.2,0.4-0.2h3.8c0.2,0,0.4,0.1,0.4,0.2
						S134.8,22.2,134.6,22.2"/>
					<path id="Path_2152" class="st0" d="M134.4,21.5c-0.1-0.1,0-0.1,0-0.1c0.2,0,0.4-0.1,0.4-0.2s-0.1-0.4-0.2-0.4l0,0l0,0
						c0,0-0.1,0-0.1-0.1c0,0,0,0,0,0c0,0,0-0.1,0.1-0.1c0.3,0,0.5,0.3,0.4,0.5c0,0,0,0,0,0C135,21.4,134.8,21.6,134.4,21.5
						C134.5,21.6,134.5,21.6,134.4,21.5"/>
					<path id="Path_2153" class="st0" d="M134.1,20.2C134,20.2,134,20.2,134.1,20.2c-0.1-0.3-0.2-0.5-0.3-0.6
						c-0.1-0.2-0.2-0.3-0.3-0.4c-0.2-0.1-0.4-0.2-0.6-0.3c-0.3-0.1-0.7,0-1,0.2c-0.1,0.1-0.2,0.2-0.3,0.4c0,0.1-0.1,0.1-0.1,0.1
						c-0.1,0-0.1-0.1-0.1-0.1l0,0c0.1-0.2,0.2-0.3,0.3-0.4c0.3-0.3,0.8-0.3,1.2-0.2c0.4,0.1,0.8,0.4,1,0.8c0.1,0.2,0.2,0.4,0.2,0.6
						C134.2,20.2,134.2,20.2,134.1,20.2L134.1,20.2"/>
					<path id="Path_2154" class="st0" d="M133.7,20.4C133.6,20.4,133.6,20.3,133.7,20.4c-0.2-0.2-0.2-0.4-0.3-0.5
						c-0.1-0.1-0.2-0.2-0.3-0.3c-0.1-0.1-0.3-0.2-0.4-0.2c-0.1-0.1-0.3,0-0.5,0c-0.1,0.1-0.1,0.1-0.1,0.2l0,0h-0.2
						c0-0.1,0.1-0.3,0.2-0.4c0.2-0.1,0.4-0.1,0.6-0.1c0.2,0,0.3,0.1,0.5,0.2c0.1,0.1,0.2,0.2,0.3,0.4c0.1,0.1,0.2,0.3,0.2,0.5
						C133.8,20.3,133.8,20.3,133.7,20.4C133.7,20.4,133.7,20.4,133.7,20.4"/>
					<rect id="Rectangle_10" x="124.6" y="17.9" class="st0" width="0.7" height="4.6"/>
				</g>
			</g>
		</g>
	</g>
</g>
</svg>
