<svg id="Logo" xmlns="http://www.w3.org/2000/svg" width="209" height="51.382" viewBox="0 0 209 51.382">
  <path id="Path_8" data-name="Path 8" d="M1513.665,28.723c7.065-6.667-.756-14.662-7.051-11.558l-.453-.843a3.564,3.564,0,0,0,.283-3.908l.568-.77c5.8,3.949,14.658-2.88,8.589-10.466l.221-.274c3.407,3.47,4.817,9.091.61,14.2l-.012-.007c3.215,5.115,1.793,10.437-2.577,13.931Zm3.88-13.482A1.657,1.657,0,1,1,1519.2,16.9,1.657,1.657,0,0,1,1517.546,15.241Z" transform="translate(-1386.849 3.401)" fill="#e6781e"/>
  <path id="Path_9" data-name="Path 9" d="M1513.3,17.688l.013,0c-6.037.227-9.935-3.666-10.776-9.2l.354,0c2.242,9.452,13.074,6.678,13.533-.325l.957.029a3.6,3.6,0,0,0,3.246,2.2l.382.877c-6.322,3.049-4.835,14.132,4.768,12.669l.129.329a11.815,11.815,0,0,1-2.946.378A10,10,0,0,1,1513.3,17.688Zm-3.043,2.5a1.657,1.657,0,1,1,1.658,1.658A1.657,1.657,0,0,1,1510.261,20.193Z" transform="translate(-1404.422 10.878)" fill="#00a33c"/>
  <path id="Path_7" data-name="Path 7" d="M1514.314,24.357c.519-7-9.822-11.254-13.356-2.206l-.347-.054c1.3-4.685,5.463-8.718,11.992-7.63l0,.014c2.822-5.342,8.144-6.773,13.355-4.735l-.175.308c-9.307-2.785-12.32,7.986-6.484,11.886l-.5.813c-1.953.045-2.565.392-3.525,1.708Zm-4.761-12.6a1.657,1.657,0,1,1,1.657,1.657A1.657,1.657,0,0,1,1509.553,11.758Z" transform="translate(-1402.057 -8.86)" fill="#c5943a"/>
  <path id="Path_5" data-name="Path 5" d="M19.094-21.969H9.526L4.563-9.574a5.389,5.389,0,0,0-.223.6,2.378,2.378,0,0,0-.289,1.046q0,.734,1.09.734v.312H.269v-.312a2.427,2.427,0,0,0,1.914-.734,8.288,8.288,0,0,0,1.2-2.225l11.883-30h.556l11.7,28.973a.69.69,0,0,0,.134.378l.178.49a8.406,8.406,0,0,0,1.28,2.248,2.529,2.529,0,0,0,2.058.868v.312H23.522v-.312a.979.979,0,0,0,.846-.289.959.959,0,0,0,.2-.534,4.873,4.873,0,0,0-.512-1.78,2.64,2.64,0,0,1-.111-.278.743.743,0,0,0-.111-.234Zm-9.257-.912h8.857L14.265-34.052ZM59.573-38.013,60.8-34.541h-.312A19.111,19.111,0,0,0,58-36.589a15.9,15.9,0,0,0-3.75-1.869,14.52,14.52,0,0,0-4.985-.823,15.84,15.84,0,0,0-8.156,1.992,13.311,13.311,0,0,0-5.1,5.107,13.412,13.412,0,0,0-1.7,6.52,20.237,20.237,0,0,0,.935,5.608,21.058,21.058,0,0,0,2.96,6.1A16.1,16.1,0,0,0,43.585-9.14a15.845,15.845,0,0,0,7.955,1.9,22.51,22.51,0,0,0,7.265-1.2,11.8,11.8,0,0,0,5.263-3.182l.289.089L62.066-8.016Q57.059-6.926,55.3-6.648a33.167,33.167,0,0,1-4.9.278,33.583,33.583,0,0,1-5.763-.445,19.477,19.477,0,0,1-4.317-1.213A15.808,15.808,0,0,1,37.187-9.8,14.114,14.114,0,0,1,32.848-15.2a16.883,16.883,0,0,1-1.624-7.366,17.753,17.753,0,0,1,1.191-6.342,17.183,17.183,0,0,1,3.56-5.674,17.177,17.177,0,0,1,5.93-4.05,20.236,20.236,0,0,1,7.989-1.513,20.448,20.448,0,0,1,4.951.534,30.361,30.361,0,0,1,4.35,1.469.858.858,0,0,1,.189.045A.5.5,0,0,1,59.573-38.013Zm33.314,0,1.224,3.471H93.8a19.113,19.113,0,0,0-2.481-2.047,15.9,15.9,0,0,0-3.75-1.869,14.52,14.52,0,0,0-4.985-.823,15.84,15.84,0,0,0-8.156,1.992,13.311,13.311,0,0,0-5.1,5.107,13.412,13.412,0,0,0-1.7,6.52,20.236,20.236,0,0,0,.935,5.608,21.057,21.057,0,0,0,2.96,6.1A16.1,16.1,0,0,0,76.9-9.14a15.845,15.845,0,0,0,7.955,1.9,22.51,22.51,0,0,0,7.265-1.2,11.8,11.8,0,0,0,5.263-3.182l.289.089L95.38-8.016q-5.007,1.09-6.765,1.369a33.168,33.168,0,0,1-4.9.278,33.583,33.583,0,0,1-5.763-.445,19.477,19.477,0,0,1-4.317-1.213A15.809,15.809,0,0,1,70.5-9.8,14.114,14.114,0,0,1,66.162-15.2a16.883,16.883,0,0,1-1.624-7.366,17.753,17.753,0,0,1,1.191-6.342,17.183,17.183,0,0,1,3.56-5.674,17.178,17.178,0,0,1,5.93-4.05,20.236,20.236,0,0,1,7.989-1.513,20.449,20.449,0,0,1,4.951.534,30.362,30.362,0,0,1,4.35,1.469.858.858,0,0,1,.189.045A.5.5,0,0,1,92.887-38.013Z" transform="translate(-0.269 42.095)" fill="#1285c7"/>
  <path id="Path_6" data-name="Path 6" d="M2.148-39.224v-.334h9.3q3.049,0,4.417.1a10.214,10.214,0,0,1,2.548.5,6.559,6.559,0,0,1,3.449,2.348A6.925,6.925,0,0,1,23.155-32.3a8.022,8.022,0,0,1-.79,3.471,10.292,10.292,0,0,1-2.1,2.96,13.006,13.006,0,0,1-2.848,2.136l2.314,3.56.2.312q.423.779,2.726,4.017t4.15,5.374a9.414,9.414,0,0,0,2.27,1.8,6.073,6.073,0,0,0,3.16.846,5.1,5.1,0,0,0,2.225-.467q.312-.134.757-.378t.8-.423l.134.445a10.594,10.594,0,0,1-2.515,1.469,11.65,11.65,0,0,1-1.947.49,13.965,13.965,0,0,1-2.481.223,8.916,8.916,0,0,1-2.058-.245,7.414,7.414,0,0,1-2.192-.968A8.736,8.736,0,0,1,22.8-9.651q-2.581-3.138-5.563-7.61a.342.342,0,0,0-.045-.134l-.045-.089-3.293-5.074-1.224.045a16.882,16.882,0,0,1-1.691.045H8.29v12.55a5.119,5.119,0,0,0,.245,1.825,1.3,1.3,0,0,0,.69.779,4.639,4.639,0,0,0,1.4.223v.312H2.148v-.312q1.558-.067,1.958-.634a4.936,4.936,0,0,0,.4-2.481V-36.265a5.518,5.518,0,0,0-.256-1.958,1.3,1.3,0,0,0-.7-.79A4.968,4.968,0,0,0,2.148-39.224Zm6.142.534v15.377h3.427a14.628,14.628,0,0,0,2.459-.256,7.456,7.456,0,0,0,2.192-.656,6.59,6.59,0,0,0,2.359-2.281,6.85,6.85,0,0,0,.957-3.75,9.988,9.988,0,0,0-.267-2.17,9.539,9.539,0,0,0-.812-2.259,7.632,7.632,0,0,0-1.413-1.936,6.59,6.59,0,0,0-2.481-1.558,11.307,11.307,0,0,0-3.727-.512Zm28.085-.534v-.334H51.417a35.412,35.412,0,0,1,8.79.823,17.714,17.714,0,0,1,5.1,2.2,13.478,13.478,0,0,1,3.271,3.015,14.054,14.054,0,0,1,2.259,4.239,15.951,15.951,0,0,1,.812,5.14,16.889,16.889,0,0,1-.712,4.929,18.932,18.932,0,0,1-1.98,4.417,18.447,18.447,0,0,1-2.8,3.572,16.782,16.782,0,0,1-3.293,2.526A12.759,12.759,0,0,1,58.427-7.2a42.842,42.842,0,0,1-6.654.423h-15.4v-.312h.4a1.7,1.7,0,0,0,1.191-.378,2.344,2.344,0,0,0,.59-1.3,16.038,16.038,0,0,0,.178-2.793V-35.441a8.171,8.171,0,0,0-.356-3.082Q38.021-39.2,36.375-39.224Zm11.171.356H42.516v25.435a7.205,7.205,0,0,0,.634,3.293A4.151,4.151,0,0,0,45.7-8.282a19.155,19.155,0,0,0,5.674.634,28.272,28.272,0,0,0,5.04-.4,15.367,15.367,0,0,0,3.905-1.224,12.083,12.083,0,0,0,3.115-2.158,14.284,14.284,0,0,0,3.338-5.062,16.278,16.278,0,0,0,1.268-6.2,15.4,15.4,0,0,0-.59-4.172A15.667,15.667,0,0,0,65.6-30.969a15.327,15.327,0,0,0-3.427-3.75,16.76,16.76,0,0,0-5.2-2.77A28.643,28.643,0,0,0,47.545-38.868Z" transform="translate(136.958 41.994)" fill="#1285c7"/>
  <path id="Path_10" data-name="Path 10" d="M26.306,38.907a10.788,10.788,0,0,1-3.418-.551V38.35c0-.05.006-.1.01-.151a6.72,6.72,0,0,1,.568-2.279,8.289,8.289,0,0,0,10.67-5.067,6.762,6.762,0,0,1,1.945.908c.1.068.2.139.3.212a10.793,10.793,0,0,1-10.072,6.935Zm-8.6-4.288h0a10.778,10.778,0,0,1,.988-14.1c.1-.1.194-.19.292-.282a6.6,6.6,0,0,1,1.671,1.846,8.273,8.273,0,0,0-.965,11.033,6.678,6.678,0,0,1-1.986,1.5Zm16.63-8.551h0a8.346,8.346,0,0,0-2.912-4.448,8.2,8.2,0,0,0-5.113-1.77,8.326,8.326,0,0,0-1.547.145,6.672,6.672,0,0,1-.22-.744,6.8,6.8,0,0,1-.176-1.713,10.924,10.924,0,0,1,1.942-.174,10.787,10.787,0,0,1,10.407,7.972,6.776,6.776,0,0,1-2.107.7c-.09.014-.182.026-.274.037Z" transform="translate(90.304 -10.322)" fill="#1285c7"/>
  <path id="Path_4" data-name="Path 4" d="M.542-10.762v-.091H6.2V-9.8H6.107a.261.261,0,0,0,0-.042A.24.24,0,0,0,6.1-9.882a.824.824,0,0,0-.313-.546,1.464,1.464,0,0,0-.695-.121H2.2V-6.61H4.893a1.52,1.52,0,0,0,.455-.049.267.267,0,0,0,.164-.249H5.6v.856H5.512a.459.459,0,0,0-.039-.137.276.276,0,0,0-.112-.124.49.49,0,0,0-.249-.049H2.2v3.569a1.039,1.039,0,0,0,.134.631A.734.734,0,0,0,2.891-2v.085H.542V-2a.729.729,0,0,0,.5-.127A.649.649,0,0,0,1.173-2.6V-9.954a1.459,1.459,0,0,0-.07-.522A.392.392,0,0,0,.9-10.7.923.923,0,0,0,.542-10.762Zm34.2-.091v.091a1,1,0,0,0-.44.07.381.381,0,0,0-.234.4,4.5,4.5,0,0,0-.012.455v6.864a4.256,4.256,0,0,0,.03.61.379.379,0,0,0,.179.276A.914.914,0,0,0,34.746-2v.085H32.361V-2a1.093,1.093,0,0,0,.458-.088.352.352,0,0,0,.173-.252,3.534,3.534,0,0,0,.036-.619v-6.8a4.423,4.423,0,0,0-.03-.607.454.454,0,0,0-.176-.31.7.7,0,0,0-.461-.091v-.091Zm33.864,0h1.73v.091a.79.79,0,0,0-.549.167.991.991,0,0,0-.149.652V-1.8L62.511-9.4v6.615a2.129,2.129,0,0,0,.03.4.443.443,0,0,0,.109.234.333.333,0,0,0,.164.1q.085.018.34.055v.085H61.437V-2a1.036,1.036,0,0,0,.482-.091.357.357,0,0,0,.173-.258,3.984,3.984,0,0,0,.03-.6V-9a3.381,3.381,0,0,0-.212-1.278q-.212-.519-1.032-.489v-.091H62.56l6.7,7.137v-6.312a.815.815,0,0,0-.155-.6.737.737,0,0,0-.495-.137Zm35.3-.31-.425,1.08H103.4a.985.985,0,0,0,.024-.261q0-.152-.106-.185a1.107,1.107,0,0,0-.313-.033h-2.337v7.653a3.351,3.351,0,0,0,.024.44.717.717,0,0,0,.091.285.339.339,0,0,0,.194.146A1.443,1.443,0,0,0,101.37-2v.085H98.948V-2a1.76,1.76,0,0,0,.44-.085.329.329,0,0,0,.191-.2,1.581,1.581,0,0,0,.055-.495v-7.78H97.395a1.664,1.664,0,0,0-.44.036q-.106.036-.106.2a1.109,1.109,0,0,0,.049.243h-.085l-.425-1.08h.085a.582.582,0,0,0,.237.273,1.626,1.626,0,0,0,.437.036h5.941a2.082,2.082,0,0,0,.507-.042.375.375,0,0,0,.228-.267Zm26.1.413v-.1h5.62v1.232h-.091a4.892,4.892,0,0,0-.215-.668.377.377,0,0,0-.209-.218,1.843,1.843,0,0,0-.492-.042h-2.949v4.012h2.737a1.581,1.581,0,0,0,.464-.049.266.266,0,0,0,.167-.249h.091v.844h-.091a.3.3,0,0,0-.167-.252,1.229,1.229,0,0,0-.391-.046h-2.81v2.761a2.479,2.479,0,0,0,.118.9.56.56,0,0,0,.358.349,3.018,3.018,0,0,0,.768.07h1.578a6.649,6.649,0,0,0,.907-.042.631.631,0,0,0,.419-.234,1.445,1.445,0,0,0,.215-.658h.085v1.232h-6.111V-2a1,1,0,0,0,.482-.127q.149-.1.149-.51V-9.857a1.623,1.623,0,0,0-.1-.716Q130.434-10.749,130.009-10.749Zm40.06.346.334.947h-.085a5.216,5.216,0,0,0-.677-.558,4.337,4.337,0,0,0-1.023-.51,3.96,3.96,0,0,0-1.359-.225,4.32,4.32,0,0,0-2.224.543,3.63,3.63,0,0,0-1.39,1.393,3.658,3.658,0,0,0-.464,1.778,5.519,5.519,0,0,0,.255,1.529,5.743,5.743,0,0,0,.807,1.663,4.391,4.391,0,0,0,1.466,1.314,4.321,4.321,0,0,0,2.17.519,6.139,6.139,0,0,0,1.981-.328,3.218,3.218,0,0,0,1.435-.868l.079.024-.625.959q-1.366.3-1.845.373a9.045,9.045,0,0,1-1.335.076A9.159,9.159,0,0,1,166-1.895a5.311,5.311,0,0,1-1.177-.331,4.31,4.31,0,0,1-.856-.482,3.849,3.849,0,0,1-1.183-1.475,4.6,4.6,0,0,1-.443-2.009,4.842,4.842,0,0,1,.325-1.73,4.686,4.686,0,0,1,.971-1.548,4.685,4.685,0,0,1,1.617-1.1,5.519,5.519,0,0,1,2.179-.413,5.576,5.576,0,0,1,1.35.146,8.281,8.281,0,0,1,1.186.4.234.234,0,0,1,.052.012A.135.135,0,0,1,170.069-10.4Zm34.077,4.03h-4.91v3.441a3.666,3.666,0,0,0,.03.552.424.424,0,0,0,.173.285.742.742,0,0,0,.446.1v.085h-2.312V-2a.771.771,0,0,0,.449-.1q.182-.112.182-.513V-9.8a1.911,1.911,0,0,0-.094-.777q-.094-.158-.537-.182v-.091h2.312v.091a.975.975,0,0,0-.482.118q-.167.106-.167.525v3.5h4.91v-3.2a1.958,1.958,0,0,0-.094-.753q-.094-.188-.525-.188v-.091h2.288v.091a.921.921,0,0,0-.446.088.359.359,0,0,0-.161.258,4,4,0,0,0-.03.595v6.864a3.973,3.973,0,0,0,.03.577.41.41,0,0,0,.17.285.776.776,0,0,0,.437.1v.085h-2.288V-2a1.065,1.065,0,0,0,.4-.073.361.361,0,0,0,.17-.255,2.972,2.972,0,0,0,.049-.643Z" transform="translate(0.513 52.87)" fill="#1285c7" stroke="#1285c7" stroke-width="0.25"/>
  <line id="Line_2" data-name="Line 2" x2="208.808" transform="translate(0.192 38.114)" fill="none" stroke="#d1d1d1" stroke-width="0.5"/>
</svg>
